# xmcd
#
# Track frame offsets: 
#        150
#        23528
#        39028
#        64680
#        80065
#        100733
#        117738
#        138705
#        147338
#        182513
#        224945
#        242867
#        275865
#        299435
#        317645
#        338020
#
# Disc length: 4691 seconds
#
# Revision: 1
# Processed by: cddbd v1.5.2PL0 Copyright (c) Steve Scherf et al.
# Submitted via: ExactAudioCopy v0.95a5
#
DISCID=fd125110
DTITLE=Various Artists / 1000 Years of sacred music (Disc 1 of 5)
DYEAR=2002
DGENRE=Classical
TTITLE0=Ambrosian and Gregorian Chant/Feast of the Epiphany - Halleluj
TTITLE0=ah (Puer natus est)
TTITLE1=Ambrosian and Gregorian Chant/Feast of the Epiphany - Symnolum
TTITLE1= (Credimus in unum Deum)
TTITLE2=Earliest French polyphony/Easter Mass - Trope: Paschale carmen
TTITLE2= - Introit: Resurrexi
TTITLE3=Earliest French polyphony/Easter Mass - Gradual: Haec dies
TTITLE4=Earliest French polyphony/Easter Mass - Organum: Alleuia V, Pa
TTITLE4=scha nostrum V, Epulemur
TTITLE5=Earliest French polyphony/Easter Mass - Antiphon: Ego sum Alph
TTITLE5=a et Omage
TTITLE6=Office for the New Year at Puy-en-Velay Cathedral - Veni rdemp
TTITLE6=tor gancium
TTITLE7=Office for the New Year at Puy-en-Velay Cathedral - Pater Nost
TTITLE7=er qui es in Coelis
TTITLE8=Peter Abelard/O Quanta qualita, motet
TTITLE9=Perotin/Alleluia posius adjutorium
TTITLE10=Llibre Vermell de Montserat - O vrigo splendens hic in celso
TTITLE11=Llibre Vermell de Montserat - Mariam mater virginem
TTITLE12=Guillaume de Machaut/The first unitary mass: Messe de Notre D
TTITLE12=ame - Kyrie
TTITLE13=Guillaume de Machaut/The first unitary mass: Messe de Notre D
TTITLE13=ame - Gloria
TTITLE14=Guillaume de Machaut/The first unitary mass: Messe de Notre D
TTITLE14=ame - Sanctus and Benedictus
TTITLE15=Guillaume de Machaut/The first unitary mass: Messe de Notre D
TTITLE15=ame - Agnus Dei
EXTD= YEAR: 2002
EXTT0=
EXTT1=
EXTT2=
EXTT3=
EXTT4=
EXTT5=
EXTT6=
EXTT7=
EXTT8=
EXTT9=
EXTT10=
EXTT11=
EXTT12=
EXTT13=
EXTT14=
EXTT15=
PLAYORDER=
.
